<svg width="1200" height="169" viewBox="0 0 1200 169" fill="none" xmlns="http://www.w3.org/2000/svg">
<path d="M0 0.5H146.934V32.9932H49.9895V49.5968H144.97V81.9114H49.9895V100.122H148.362V133.329H0V0.5Z" fill="#272727"/>
<path d="M215.506 0.5V133.329H166.945V0.5H215.506Z" fill="#272727"/>
<path d="M307.194 58.1664C291.364 58.1664 282.14 62.9868 279.522 72.6277H334.867C332.844 62.9868 323.619 58.1664 307.194 58.1664ZM383.071 98.3365V98.6936C383.071 101.907 382.655 104.942 381.822 107.799C380.988 110.655 379.084 113.929 376.109 117.618C373.133 121.189 369.205 124.283 364.325 126.902C359.445 129.401 352.482 131.544 343.437 133.329C334.51 135.115 324.096 136.007 312.193 136.007H302.731C291.424 136.007 281.426 134.995 272.737 132.972C264.049 130.949 257.145 128.33 252.027 125.117C246.909 121.903 242.744 118.094 239.53 113.69C236.316 109.168 234.114 104.764 232.924 100.479C231.853 96.0751 231.317 91.4332 231.317 86.5533V82.9826C231.317 50.7275 254.943 34.6 302.195 34.6H312.015C320.703 34.6 328.559 35.1951 335.581 36.3853C342.723 37.4565 348.733 38.9443 353.613 40.8487C358.493 42.753 362.718 45.1335 366.289 47.99C369.979 50.8465 372.895 53.7626 375.037 56.7382C377.18 59.5947 378.906 62.8678 380.215 66.5575C381.524 70.1282 382.357 73.5203 382.714 76.734C383.19 79.8285 383.428 83.2207 383.428 86.9104V92.2664H278.986C280.652 104.05 290.353 109.941 308.087 109.941H308.266C312.55 109.941 316.359 109.584 319.692 108.87C323.143 108.156 325.762 107.382 327.547 106.549C329.452 105.597 330.999 104.526 332.189 103.335C333.379 102.145 334.153 101.193 334.51 100.479C334.867 99.6458 335.105 98.9317 335.224 98.3365H383.071Z" fill="#272727"/>
<path d="M473.177 62.6298H472.105C462.227 62.6298 455.085 64.4746 450.681 68.1643C446.397 71.854 444.254 76.4364 444.254 81.9114V82.8041C444.254 88.5172 446.456 93.3376 450.86 97.2653C455.383 101.193 462.465 103.157 472.105 103.157H473.177C483.175 103.157 490.792 101.193 496.029 97.2653C501.266 93.2186 503.885 88.3982 503.885 82.8041V82.2685C503.885 76.6744 501.266 72.0326 496.029 68.3429C490.911 64.5341 483.294 62.6298 473.177 62.6298ZM482.103 168.143H468.356C457.049 168.143 447.051 167.251 438.362 165.465C429.793 163.68 423.187 161.538 418.545 159.038C414.022 156.539 410.333 153.563 407.476 150.111C404.739 146.779 402.953 143.863 402.12 141.363C401.406 138.864 401.049 136.364 401.049 133.865V133.329H449.789C450.979 138.685 459.31 141.363 474.783 141.363H475.319C494.72 141.363 504.42 133.21 504.42 116.904V114.94C494.898 124.462 479.306 129.223 457.644 129.223H454.788C434.316 129.223 419.259 124.879 409.619 116.19C399.978 107.501 395.157 96.6107 395.157 83.5182V80.3046C395.157 67.6882 399.68 57.0952 408.726 48.5256C417.772 39.837 432.054 35.4926 451.574 35.4926H455.502C476.688 35.4926 492.934 40.194 504.242 49.5968V37.278H552.803V117.261C552.803 121.665 552.267 125.95 551.196 130.116C550.244 134.281 548.22 138.745 545.126 143.506C542.031 148.267 537.984 152.373 532.986 155.824C528.106 159.395 521.262 162.311 512.454 164.573C503.646 166.953 493.53 168.143 482.103 168.143Z" fill="#272727"/>
<path d="M658.385 92.0879V87.9816L626.249 93.6947C621.964 94.4088 618.929 95.361 617.143 96.5512C615.358 97.7414 614.465 99.5268 614.465 101.907V102.086C614.465 104.823 615.596 107.144 617.858 109.049C620.238 110.953 624.166 111.905 629.641 111.905C638.21 111.905 645.114 109.941 650.351 106.014C655.707 101.967 658.385 97.3249 658.385 92.0879ZM659.278 120.475C649.518 130.235 634.521 135.115 614.287 135.115H612.323C597.326 135.115 586.138 132.139 578.759 126.188C571.498 120.237 567.868 112.917 567.868 104.228V102.086C567.868 93.7542 570.844 87.327 576.795 82.8041C582.865 78.1622 592.863 75.3057 606.788 74.2345L653.029 70.1282C656.6 69.6521 658.385 68.1048 658.385 65.4863C658.385 64.058 657.968 62.8678 657.135 61.9156C656.421 60.9635 654.457 60.1303 651.243 59.4162C648.03 58.583 643.448 58.1664 637.496 58.1664H636.782C632.021 58.1664 628.034 58.5235 624.82 59.2376C621.726 59.8327 619.524 60.7849 618.215 62.0942C617.024 63.4034 616.251 64.4151 615.894 65.1293C615.656 65.7244 615.418 66.6765 615.18 67.9858H570.189V66.9146C570.189 63.701 570.427 60.904 570.903 58.5235C571.498 56.143 572.986 53.346 575.366 50.1324C577.747 46.9188 580.961 44.3003 585.007 42.2769C589.173 40.2535 595.243 38.5277 603.218 37.0994C611.311 35.5521 620.833 34.7785 631.783 34.7785H641.781C653.207 34.7785 663.086 35.4926 671.418 36.9209C679.749 38.2301 686.058 39.8965 690.342 41.9199C694.627 43.8242 698.019 46.3237 700.519 49.4183C703.018 52.3938 704.506 55.0718 704.982 57.4523C705.577 59.7137 705.875 62.4512 705.875 65.6649V101.193C705.875 103.931 707.244 105.299 709.981 105.299H715.159V133.329H674.81C665.883 133.329 660.706 129.044 659.278 120.475Z" fill="#272727"/>
<path d="M728.853 133.329V37.278H777.057V54.2387C778.842 52.5724 780.211 51.3226 781.163 50.4895C782.234 49.5373 784.436 47.9305 787.769 45.6691C791.221 43.4076 794.553 41.6818 797.767 40.4916C800.98 39.1823 805.146 37.9921 810.264 36.9209C815.501 35.7307 820.976 35.1356 826.689 35.1356H827.761C836.33 35.1356 843.769 36.3258 850.077 38.7062C856.505 40.9677 861.444 44.0027 864.896 47.8115C868.347 51.5012 870.847 55.3694 872.394 59.4162C874.06 63.3439 874.894 67.3907 874.894 71.5565V133.329H826.154V87.446C826.154 80.6617 824.249 75.3057 820.441 71.3779C816.751 67.3312 810.919 65.3078 802.944 65.3078C794.97 65.3078 788.721 67.4502 784.198 71.735C779.675 76.0198 777.414 81.6734 777.414 88.6957V133.329H728.853Z" fill="#272727"/>
<path d="M972.506 133.329H931.443C914.423 133.329 905.913 124.224 905.913 106.014V66.7361H887.524V37.278H905.913V9.24815H954.117V37.278H972.506V66.7361H954.117V95.1229C954.117 98.2175 954.593 100.419 955.545 101.729C956.616 102.919 958.818 103.514 962.151 103.514H972.506V133.329Z" fill="#272727"/>
<path d="M1037.97 0.5V133.329H989.408V0.5H1037.97Z" fill="#272727"/>
<path d="M1071.63 166.894V137.257H1093.42C1096.39 137.257 1097.88 136.245 1097.88 134.222V134.043C1097.88 132.734 1096.51 129.52 1093.77 124.402L1048.42 37.278H1100.2L1126.98 99.0507L1151.8 37.278H1200L1153.76 137.435C1149 147.79 1143.76 155.289 1138.05 159.931C1132.34 164.573 1125.25 166.894 1116.8 166.894H1071.63Z" fill="#272727"/>
</svg>
