<svg width="230" height="105" viewBox="0 0 230 105" fill="none" xmlns="http://www.w3.org/2000/svg">
<circle cx="5" cy="5" r="5" fill="#AAAAAA"/>
<circle cx="25" cy="5" r="5" fill="#AAAAAA"/>
<circle cx="45" cy="5" r="5" fill="#AAAAAA"/>
<circle cx="65" cy="5" r="5" fill="#AAAAAA"/>
<circle cx="5" cy="25" r="5" fill="#AAAAAA"/>
<circle cx="25" cy="25" r="5" fill="#AAAAAA"/>
<circle cx="45" cy="25" r="5" fill="#AAAAAA"/>
<circle cx="65" cy="25" r="5" fill="#AAAAAA"/>
<circle cx="5" cy="45" r="5" fill="#AAAAAA"/>
<circle cx="25" cy="45" r="5" fill="#AAAAAA"/>
<circle cx="45" cy="45" r="5" fill="#AAAAAA"/>
<circle cx="65" cy="45" r="5" fill="#AAAAAA"/>
<circle cx="5" cy="65" r="5" fill="#AAAAAA"/>
<circle cx="25" cy="65" r="5" fill="#AAAAAA"/>
<circle cx="45" cy="65" r="5" fill="#AAAAAA"/>
<circle cx="65" cy="65" r="5" fill="#AAAAAA"/>
<circle cx="85" cy="40" r="5" fill="#AAAAAA"/>
<circle cx="105" cy="40" r="5" fill="#AAAAAA"/>
<circle cx="125" cy="40" r="5" fill="#AAAAAA"/>
<circle cx="145" cy="40" r="5" fill="#AAAAAA"/>
<circle cx="85" cy="60" r="5" fill="#AAAAAA"/>
<circle cx="105" cy="60" r="5" fill="#AAAAAA"/>
<circle cx="125" cy="60" r="5" fill="#AAAAAA"/>
<circle cx="145" cy="60" r="5" fill="#AAAAAA"/>
<circle cx="85" cy="80" r="5" fill="#AAAAAA"/>
<circle cx="105" cy="80" r="5" fill="#AAAAAA"/>
<circle cx="125" cy="80" r="5" fill="#AAAAAA"/>
<circle cx="145" cy="80" r="5" fill="#AAAAAA"/>
<circle cx="85" cy="100" r="5" fill="#AAAAAA"/>
<circle cx="105" cy="100" r="5" fill="#AAAAAA"/>
<circle cx="125" cy="100" r="5" fill="#AAAAAA"/>
<circle cx="145" cy="100" r="5" fill="#AAAAAA"/>
<circle cx="165" cy="5" r="5" fill="#AAAAAA"/>
<circle cx="185" cy="5" r="5" fill="#AAAAAA"/>
<circle cx="205" cy="5" r="5" fill="#AAAAAA"/>
<circle cx="225" cy="5" r="5" fill="#AAAAAA"/>
<circle cx="165" cy="25" r="5" fill="#AAAAAA"/>
<circle cx="185" cy="25" r="5" fill="#AAAAAA"/>
<circle cx="205" cy="25" r="5" fill="#AAAAAA"/>
<circle cx="225" cy="25" r="5" fill="#AAAAAA"/>
<circle cx="165" cy="45" r="5" fill="#AAAAAA"/>
<circle cx="185" cy="45" r="5" fill="#AAAAAA"/>
<circle cx="205" cy="45" r="5" fill="#AAAAAA"/>
<circle cx="225" cy="45" r="5" fill="#AAAAAA"/>
<circle cx="165" cy="65" r="5" fill="#AAAAAA"/>
<circle cx="185" cy="65" r="5" fill="#AAAAAA"/>
<circle cx="205" cy="65" r="5" fill="#AAAAAA"/>
<circle cx="225" cy="65" r="5" fill="#AAAAAA"/>
</svg>
